<svg width="46" height="45" viewBox="0 0 46 45" fill="none" xmlns="http://www.w3.org/2000/svg">
<path d="M44.6004 14.0676C44.6004 22.4106 39.7673 29.9886 32.2614 33.5615V36.0096C32.2614 37.4947 31.0463 38.7096 29.5614 38.7096H16.4484C14.9632 38.7096 13.7484 37.4947 13.7484 36.0096V33.5706C6.23327 29.9886 1.40039 22.4016 1.40039 14.0676C1.40039 13.5636 1.80535 13.1676 2.30039 13.1676H43.7004C44.1952 13.1676 44.6004 13.5636 44.6004 14.0676ZM40.2533 11.3676H4.28935C5.27021 10.3147 8.65422 7.02056 13.2713 6.39961C17.4953 5.85478 18.736 7.52461 22.1092 7.52461C26.3245 7.52461 34.3644 3.28395 40.2533 11.3676Z" fill="white"/>
</svg>
