<svg width="46" height="45" viewBox="0 0 46 45" fill="none" xmlns="http://www.w3.org/2000/svg">
<path d="M29.3479 20.9669C29.3479 20.2873 29.3824 19.591 29.4365 18.8585H29.366C28.9984 19.5911 28.7042 20.2517 28.3202 20.9669L26.8047 23.4412V23.4755H29.3479V20.9669Z" fill="white"/>
<path d="M23.0004 0C10.5953 0 0.5 10.0944 0.5 22.4996C0.5 34.9043 10.5945 45 23.0004 45C35.406 45 45.4985 34.9058 45.4985 22.5004C45.4985 10.0952 35.4058 0 23.0004 0ZM40.8614 23.4801C40.5748 23.8117 40.1696 24.0158 39.7307 24.0473C39.691 24.0502 39.6504 24.0533 39.6107 24.0533C39.6009 24.0533 39.5921 24.0473 39.5837 24.0473C39.5529 24.0488 39.5243 24.0563 39.4929 24.0563C38.9002 24.0563 38.3848 23.7419 38.0929 23.2716L35.092 20.6803C34.5864 20.2433 34.3936 19.5457 34.6029 18.9105C34.8138 18.2766 35.3862 17.8309 36.0516 17.7818L37.0952 17.7061C35.1071 11.5716 29.3456 7.12057 22.5572 7.12057C14.1297 7.12057 7.2735 13.9768 7.2735 22.405C7.2735 30.8322 14.1296 37.6892 22.5572 37.6892C27.4355 37.6892 32.0627 35.3275 34.9346 31.3738C35.4703 30.6372 36.5033 30.4706 37.2423 31.0077C37.9805 31.5433 38.1441 32.5772 37.6085 33.3154C34.117 38.1234 28.4904 40.9931 22.5574 40.9931C12.3075 40.9931 3.96858 32.6551 3.96858 22.405C3.96858 12.155 12.3076 3.81665 22.5574 3.81665C31.0913 3.81665 38.2851 9.60641 40.4579 17.4601L42.4601 17.3142C43.1181 17.2575 43.7571 17.6214 44.0565 18.22C44.3588 18.8168 44.2674 19.5374 43.8306 20.0423L40.8614 23.4801ZM24.3297 25.4606V23.7381L28.615 16.8378H31.8552V23.4772H33.2153V25.4623H31.8552V28.1638H29.3457V25.4623H24.3298L24.3297 25.4606ZM18.2951 18.7714C17.3193 18.7714 16.4668 19.259 15.8744 19.7133L15.1246 17.8133C15.979 17.1704 17.3032 16.6448 18.8359 16.6448C21.3971 16.6448 22.8082 18.1437 22.8082 20.1993C22.8082 22.0992 21.4323 23.615 19.7947 25.0779L18.7492 25.9505V25.9842H23.0179V28.1628H14.9856V26.5588L16.4483 25.2355C18.9235 23.0227 20.1259 21.7503 20.1596 20.4269C20.1605 19.5035 19.6034 18.7714 18.2951 18.7714Z" fill="white"/>
</svg>
