<svg width="46" height="45" viewBox="0 0 46 45" fill="none" xmlns="http://www.w3.org/2000/svg">
<path d="M39.9538 7.97064C36.8885 7.79894 33.8628 7.19419 30.967 6.17439C28.4315 5.27901 26.0174 4.07161 23.7801 2.58002C23.5491 2.42604 23.2777 2.34387 23.0001 2.34387C22.7225 2.34387 22.4511 2.42604 22.2201 2.58002C19.9828 4.07161 17.5687 5.27901 15.0332 6.17439C12.1374 7.19419 9.11173 7.79894 6.04635 7.97064C5.68769 7.99121 5.35045 8.14809 5.10367 8.40917C4.85688 8.67024 4.71922 9.01577 4.71885 9.37502V22.605C4.70811 25.6541 5.55216 28.6451 7.15522 31.2388C8.75828 33.8325 11.0562 35.9249 13.7882 37.2788L16.2013 38.4844C17.7346 39.2534 19.1966 40.1569 20.5701 41.1844L22.1564 42.375C22.3998 42.5576 22.6958 42.6563 23.0001 42.6563C23.3044 42.6563 23.6004 42.5576 23.8439 42.375L25.4301 41.1863C26.8022 40.1571 28.2636 39.2529 29.797 38.4844L32.212 37.2788C34.944 35.9249 37.2419 33.8325 38.845 31.2388C40.448 28.6451 41.2921 25.6541 41.2813 22.605V9.37502C41.281 9.01577 41.1433 8.67024 40.8965 8.40917C40.6497 8.14809 40.3125 7.99121 39.9538 7.97064ZM26.7501 22.0313H24.4064V24.375C24.4064 24.748 24.2582 25.1057 23.9945 25.3694C23.7307 25.6331 23.3731 25.7813 23.0001 25.7813C22.6271 25.7813 22.2695 25.6331 22.0057 25.3694C21.742 25.1057 21.5939 24.748 21.5939 24.375V22.0313H19.2501C18.8771 22.0313 18.5195 21.8831 18.2557 21.6194C17.992 21.3557 17.8439 20.998 17.8439 20.625C17.8439 20.2521 17.992 19.8944 18.2557 19.6307C18.5195 19.3669 18.8771 19.2188 19.2501 19.2188H21.5939V16.875C21.5939 16.5021 21.742 16.1444 22.0057 15.8807C22.2695 15.6169 22.6271 15.4688 23.0001 15.4688C23.3731 15.4688 23.7307 15.6169 23.9945 15.8807C24.2582 16.1444 24.4064 16.5021 24.4064 16.875V19.2188H26.7501C27.1231 19.2188 27.4807 19.3669 27.7445 19.6307C28.0082 19.8944 28.1564 20.2521 28.1564 20.625C28.1564 20.998 28.0082 21.3557 27.7445 21.6194C27.4807 21.8831 27.1231 22.0313 26.7501 22.0313Z" fill="white"/>
</svg>
