<svg width="46" height="45" viewBox="0 0 46 45" fill="none" xmlns="http://www.w3.org/2000/svg">
<path d="M42.3424 25.1866L39.3872 20.4851C39.0513 19.9478 38.917 19.3433 38.917 18.7388C38.917 13.8358 36.9692 9.403 33.7454 6.24629C30.5215 3.02241 26.0886 1.07465 21.2528 1.07465C16.3498 1.07465 11.917 3.08957 8.76029 6.24629C5.46925 9.403 3.52148 13.8358 3.52148 18.7388C3.52148 24.4478 6.27522 29.5523 10.5066 32.8433C12.2528 34.1866 13.6633 35.8657 14.6036 37.8134C15.4095 39.3582 15.8797 41.0373 16.014 42.7164C16.0812 43.4552 16.6857 44.0597 17.4245 44.0597H30.4543C31.2603 44.0597 31.8648 43.3881 31.8648 42.6493V38.1493C31.8648 37.2761 32.6036 36.5373 33.4767 36.5373H35.9618C37.5737 36.5373 38.8498 35.2612 38.8498 33.6493V28.7463C38.8498 27.8732 39.5886 27.1343 40.4618 27.1343H41.2678C42.2081 26.9329 42.8125 25.9254 42.3424 25.1866ZM21.9916 29.5523C21.8573 29.6194 21.723 29.6194 21.5886 29.5523C20.3797 28.8806 14.2006 25.1866 11.3797 20.3508H16.2155C16.4842 20.3508 16.7528 20.2164 16.9543 19.9478L18.2976 17.9329L19.7752 22.5672C19.9095 22.903 20.1782 23.1045 20.514 23.1717H20.6484C20.917 23.1717 21.2528 23.0373 21.3872 22.7687L25.3498 16.3881L26.8275 20.1493C26.9618 20.4851 27.2976 20.6866 27.6334 20.6866H32.0663C29.111 25.3881 23.2006 28.8806 21.9916 29.5523ZM32.8051 19.4776C32.7379 19.4105 32.6036 19.4105 32.4692 19.4105H27.9021L26.1558 14.9776C26.0215 14.6418 25.7528 14.4403 25.417 14.4403C25.0812 14.4403 24.7454 14.5746 24.611 14.8433L20.6484 21.1567L19.1707 16.5896C19.0364 16.2537 18.7678 16.0523 18.4319 15.9851C18.0961 15.9179 17.7603 16.0523 17.5588 16.3881L15.7454 19.0075H10.7752C10.6409 19.0075 10.5737 19.0075 10.5066 19.0746C10.1707 17.9329 9.90208 16.7911 9.90208 15.5821C9.90208 11.6194 13.126 8.46271 17.0886 8.46271C18.7678 8.46271 20.3797 9.47017 21.5886 10.5448C21.723 10.6791 21.9916 10.6791 22.126 10.5448C23.3349 9.47017 24.9469 8.46271 26.626 8.46271C30.5887 8.46271 33.7454 11.6866 33.7454 15.6493C33.7454 16.9926 33.4095 18.2687 32.8051 19.4776Z" fill="white"/>
</svg>
