<svg width="45" height="45" viewBox="0 0 45 45" fill="none" xmlns="http://www.w3.org/2000/svg">
<g clip-path="url(#clip0_354_1191)">
<path d="M13.1387 14.1943C13.1387 11.7118 14.1248 9.33097 15.8803 7.57557C17.6357 5.82016 20.0165 4.83398 22.499 4.83398C24.9815 4.83398 27.3624 5.82016 29.1178 7.57557C30.8732 9.33097 31.8594 11.7118 31.8594 14.1943V17.2705C33.6552 17.5437 35.3338 18.3299 36.6934 19.5346V14.1943C36.6934 6.36768 30.3257 0 22.499 0C14.6724 0 8.30469 6.36768 8.30469 14.1943V19.5328C9.66429 18.3284 11.3429 17.5425 13.1387 17.2696V14.1943ZM22.499 27.9932C22.0985 27.9932 21.7075 28.1148 21.3776 28.3419C21.0478 28.569 20.7946 28.8909 20.6517 29.2651C20.5088 29.6392 20.4829 30.0479 20.5773 30.4371C20.6718 30.8263 20.8822 31.1776 21.1807 31.4446C21.2498 31.5063 21.3051 31.5819 21.3429 31.6664C21.3808 31.7509 21.4004 31.8424 21.4004 31.9351V36.123C21.4004 36.4144 21.5161 36.6939 21.7222 36.8999C21.9282 37.1059 22.2076 37.2217 22.499 37.2217C22.7904 37.2217 23.0698 37.1059 23.2759 36.8999C23.4819 36.6939 23.5977 36.4144 23.5977 36.123V31.9351C23.5977 31.8424 23.6173 31.7509 23.6551 31.6664C23.693 31.5819 23.7483 31.5063 23.8174 31.4446C24.1159 31.1776 24.3263 30.8263 24.4207 30.4371C24.5152 30.0479 24.4892 29.6392 24.3463 29.2651C24.2034 28.8909 23.9503 28.569 23.6204 28.3419C23.2906 28.1148 22.8995 27.9932 22.499 27.9932Z" fill="white"/>
<path d="M30.4359 18.4808C28.9182 18.4788 27.4205 18.8255 26.0581 19.4942C24.6957 20.1629 23.5052 21.1356 22.5784 22.3374L22.5011 22.4376L22.4237 22.3374C21.4968 21.1356 20.3062 20.1628 18.9437 19.4941C17.5811 18.8254 16.0832 18.4787 14.5654 18.4808C10.0988 18.4808 6.46369 22.0843 6.46106 26.5201C6.45725 27.3811 6.54565 28.24 6.72473 29.0821C7.29514 31.7285 8.47463 34.2158 10.2298 36.4746C11.6246 38.2667 13.3842 39.9164 15.4584 41.3771C18.9793 43.8565 22.1592 44.9262 22.2928 44.9701C22.4275 45.0146 22.5729 45.0146 22.7076 44.9701C22.8412 44.9262 26.0211 43.8565 29.542 41.3771C31.6162 39.9164 33.3758 38.2667 34.7706 36.4746C36.5284 34.2193 37.7044 31.7338 38.2748 29.0856C38.4539 28.2435 38.5423 27.3846 38.5385 26.5236C38.5376 22.0869 34.9025 18.4808 30.4359 18.4808ZM24.9172 32.211V36.123C24.9172 36.7641 24.6626 37.3788 24.2093 37.8321C23.756 38.2854 23.1412 38.54 22.5002 38.54C21.8592 38.54 21.2444 38.2854 20.7911 37.8321C20.3379 37.3788 20.0832 36.7641 20.0832 36.123V32.211C19.6473 31.7408 19.3579 31.1536 19.2507 30.5213C19.1435 29.8891 19.223 29.2393 19.4796 28.6516C19.7361 28.0639 20.1586 27.5638 20.6951 27.2126C21.2316 26.8614 21.859 26.6743 22.5002 26.6743C23.1415 26.6743 23.7688 26.8614 24.3053 27.2126C24.8419 27.5638 25.2643 28.0639 25.5208 28.6516C25.7774 29.2393 25.8569 29.8891 25.7497 30.5213C25.6425 31.1536 25.3532 31.7408 24.9172 32.211Z" fill="white"/>
</g>
<defs>
<clipPath id="clip0_354_1191">
<rect width="45" height="45" fill="white"/>
</clipPath>
</defs>
</svg>
