<svg width="46" height="45" viewBox="0 0 46 45" fill="none" xmlns="http://www.w3.org/2000/svg">
<g clip-path="url(#clip0_354_1185)">
<path d="M38.1168 13.1907H36.6366C36.535 12.9679 36.4213 12.7364 36.2904 12.4856C36.0579 11.8551 35.7783 11.243 35.4539 10.6545C35.4539 10.6545 36.5394 9.59271 36.541 9.59112C37.001 9.12885 37.2587 8.50294 37.2576 7.85083C37.2565 7.19872 36.9966 6.57371 36.5351 6.11302C36.5351 6.11302 34.2929 3.92458 34.29 3.92179C33.8207 3.48162 33.2014 3.23669 32.558 3.23678C31.9145 3.23687 31.2953 3.48197 30.8261 3.92226L29.7347 4.98573C29.7206 4.98856 29.7062 4.98995 29.6918 4.9899C29.6746 4.99032 29.6575 4.98809 29.6409 4.98329C28.8143 4.55353 27.9481 4.20431 27.0546 3.94046V2.44072C27.0502 1.79002 26.7879 1.16762 26.3252 0.710057C25.8626 0.252496 25.2373 -0.0028647 24.5866 -6.78501e-06H21.4098C20.7582 -0.00231844 20.1323 0.25392 19.6694 0.712497C19.2065 1.17107 18.9444 1.79454 18.9406 2.44613V3.91797C18.9277 3.9326 18.9122 3.94472 18.8949 3.95372C18.0177 4.21707 17.1671 4.5621 16.3543 4.98427C16.3227 4.99498 16.2886 4.9951 16.257 4.98462L15.1706 3.92257C14.7023 3.48188 14.0837 3.23612 13.4407 3.23528C12.7976 3.23444 12.1784 3.47858 11.709 3.91804L9.45521 6.11773C9.22647 6.34553 9.04496 6.61626 8.92112 6.91438C8.79727 7.21251 8.73351 7.53215 8.73351 7.85497C8.73351 8.1778 8.79726 8.49744 8.9211 8.79557C9.04495 9.09369 9.22645 9.36442 9.45519 9.59223L10.5429 10.6538C10.2186 11.245 9.93896 11.8596 9.70626 12.4924C9.57935 12.7362 9.46614 12.9675 9.36461 13.1907H7.88627C7.23595 13.1884 6.61127 13.4442 6.14927 13.9019C5.68727 14.3595 5.42568 14.9818 5.42188 15.6321V18.7322C5.42591 19.3823 5.68764 20.0042 6.14964 20.4616C6.61164 20.9189 7.23618 21.1744 7.88627 21.1718L8.3846 21.1745C8.39692 21.1744 8.40908 21.1772 8.42013 21.1826C8.65699 22.3925 9.03419 23.5705 9.54408 24.6929L9.45483 24.7732C9.22242 24.9989 9.03773 25.269 8.91172 25.5674C8.78572 25.8659 8.72098 26.1866 8.72134 26.5106C8.7217 26.8346 8.78716 27.1552 8.91382 27.4534C9.04049 27.7515 9.22578 28.0212 9.4587 28.2464L11.7048 30.4399C12.1368 30.8595 12.7069 31.1071 13.3084 31.1363C14.6952 33.3085 15.8741 35.286 16.3728 38.6953C16.3923 39.0278 16.3872 39.3614 16.3574 39.6932C16.365 40.4258 16.6303 41.1324 17.1069 41.6888C17.5835 42.2453 18.2408 42.6161 18.9636 42.7362C19.0175 43.3559 19.3025 43.9326 19.7618 44.352C20.2212 44.7713 20.8215 45.0026 21.4435 45H24.5565C25.1788 45.0026 25.7792 44.7712 26.2386 44.3516C26.6981 43.932 26.9829 43.3549 27.0365 42.735C27.733 42.6045 28.3664 42.2463 28.8372 41.7166C29.3079 41.187 29.5894 40.5159 29.6372 39.809C29.9472 36.0423 30.8378 33.9464 32.5746 31.1391C33.2156 31.139 33.8311 30.8882 34.2897 30.4405L36.5402 28.2428C36.7694 28.0149 36.9512 27.7438 37.0751 27.4452C37.1989 27.1467 37.2623 26.8265 37.2617 26.5033C37.2611 26.1801 37.1964 25.8602 37.0714 25.5621C36.9465 25.264 36.7636 24.9936 36.5336 24.7666L36.4366 24.6717C36.9623 23.5612 37.3479 22.3896 37.5847 21.184C37.5947 21.1776 37.6063 21.1743 37.6182 21.1745L38.1191 21.1718C38.7683 21.1731 39.3916 20.9172 39.8525 20.4599C40.3134 20.0027 40.5743 19.3814 40.5781 18.7322V15.6292C40.5743 14.9796 40.3131 14.3581 39.8516 13.901C39.3902 13.4439 38.7663 13.1884 38.1168 13.1907ZM13.8519 11.973C13.991 11.973 14.1269 12.0142 14.2425 12.0915C14.3582 12.1687 14.4483 12.2786 14.5015 12.407C14.5547 12.5355 14.5687 12.6769 14.5415 12.8133C14.5144 12.9497 14.4474 13.075 14.3491 13.1733C14.2508 13.2716 14.1255 13.3386 13.9891 13.3657C13.8527 13.3929 13.7113 13.3789 13.5828 13.3257C13.4544 13.2725 13.3445 13.1824 13.2673 13.0667C13.19 12.9511 13.1488 12.8152 13.1488 12.6761C13.1488 12.4896 13.2229 12.3108 13.3547 12.1789C13.4866 12.0471 13.6654 11.973 13.8519 11.973ZM12.804 14.5184C12.9431 14.5184 13.079 14.5596 13.1947 14.6369C13.3103 14.7142 13.4004 14.824 13.4536 14.9525C13.5069 15.0809 13.5208 15.2223 13.4936 15.3587C13.4665 15.4951 13.3995 15.6204 13.3012 15.7187C13.2029 15.817 13.0776 15.884 12.9412 15.9111C12.8048 15.9383 12.6634 15.9243 12.535 15.8711C12.4065 15.8179 12.2967 15.7278 12.2194 15.6122C12.1421 15.4965 12.1009 15.3606 12.1009 15.2215C12.1009 15.035 12.175 14.8562 12.3068 14.7243C12.4387 14.5925 12.6176 14.5184 12.804 14.5184ZM11.75 17.9506C11.75 17.8116 11.7912 17.6756 11.8685 17.56C11.9458 17.4444 12.0556 17.3542 12.1841 17.301C12.3125 17.2478 12.4539 17.2339 12.5903 17.261C12.7267 17.2881 12.852 17.3551 12.9503 17.4534C13.0486 17.5518 13.1156 17.6771 13.1427 17.8134C13.1699 17.9498 13.1559 18.0912 13.1027 18.2197C13.0495 18.3482 12.9594 18.458 12.8438 18.5352C12.7281 18.6125 12.5922 18.6537 12.4531 18.6537C12.2666 18.6537 12.0878 18.5797 11.9559 18.4478C11.8241 18.3159 11.75 18.1371 11.75 17.9506ZM12.1121 20.6786C12.1121 20.5395 12.1533 20.4036 12.2306 20.288C12.3078 20.1723 12.4176 20.0822 12.5461 20.029C12.6746 19.9758 12.816 19.9619 12.9524 19.989C13.0887 20.0161 13.214 20.0831 13.3124 20.1814C13.4107 20.2798 13.4777 20.405 13.5048 20.5414C13.5319 20.6778 13.518 20.8192 13.4648 20.9477C13.4116 21.0762 13.3214 21.186 13.2058 21.2632C13.0902 21.3405 12.9542 21.3817 12.8152 21.3817C12.6287 21.3817 12.4499 21.3076 12.318 21.1758C12.1861 21.0439 12.1121 20.8651 12.1121 20.6786ZM13.8726 23.9223C13.7335 23.9223 13.5976 23.881 13.4819 23.8038C13.3663 23.7265 13.2762 23.6167 13.223 23.4882C13.1698 23.3597 13.1558 23.2183 13.183 23.082C13.2101 22.9456 13.2771 22.8203 13.3754 22.7219C13.4737 22.6236 13.599 22.5566 13.7354 22.5295C13.8718 22.5024 14.0132 22.5163 14.1416 22.5695C14.2701 22.6227 14.3799 22.7129 14.4572 22.8285C14.5345 22.9441 14.5757 23.0801 14.5757 23.2191C14.5757 23.3115 14.5575 23.4029 14.5222 23.4882C14.4868 23.5735 14.435 23.651 14.3698 23.7163C14.3045 23.7816 14.227 23.8334 14.1416 23.8687C14.0563 23.9041 13.9649 23.9223 13.8726 23.9223ZM15.5242 9.78675C15.6633 9.78675 15.7992 9.82799 15.9148 9.90525C16.0305 9.98251 16.1206 10.0923 16.1738 10.2208C16.227 10.3493 16.2409 10.4907 16.2138 10.627C16.1867 10.7634 16.1197 10.8887 16.0214 10.9871C15.923 11.0854 15.7978 11.1524 15.6614 11.1795C15.525 11.2066 15.3836 11.1927 15.2551 11.1395C15.1266 11.0863 15.0168 10.9961 14.9396 10.8805C14.8623 10.7649 14.8211 10.6289 14.8211 10.4899C14.8211 10.3034 14.8951 10.1246 15.027 9.99269C15.1589 9.86083 15.3377 9.78675 15.5242 9.78675ZM15.5523 26.1009C15.4132 26.1009 15.2773 26.0597 15.1616 25.9824C15.046 25.9051 14.9559 25.7953 14.9027 25.6668C14.8495 25.5384 14.8355 25.397 14.8627 25.2606C14.8898 25.1242 14.9568 24.9989 15.0551 24.9006C15.1534 24.8022 15.2787 24.7353 15.4151 24.7082C15.5515 24.681 15.6929 24.6949 15.8214 24.7482C15.9498 24.8014 16.0596 24.8915 16.1369 25.0071C16.2142 25.1228 16.2554 25.2587 16.2554 25.3978C16.2554 25.4901 16.2372 25.5815 16.2019 25.6668C16.1665 25.7521 16.1148 25.8297 16.0495 25.895C15.9842 25.9602 15.9067 26.012 15.8214 26.0474C15.736 26.0827 15.6446 26.1009 15.5523 26.1009ZM28.2435 8.0725C28.3826 8.0725 28.5185 8.11374 28.6342 8.191C28.7498 8.26826 28.8399 8.37807 28.8931 8.50655C28.9463 8.63503 28.9603 8.7764 28.9331 8.9128C28.906 9.04919 28.839 9.17447 28.7407 9.27281C28.6424 9.37114 28.5171 9.43811 28.3807 9.46524C28.2443 9.49237 28.1029 9.47844 27.9745 9.42523C27.846 9.37201 27.7362 9.28189 27.6589 9.16626C27.5816 9.05063 27.5404 8.91469 27.5404 8.77562C27.5404 8.58914 27.6145 8.4103 27.7463 8.27844C27.8782 8.14658 28.057 8.0725 28.2435 8.0725ZM25.6981 7.02773C25.8371 7.02773 25.9731 7.06896 26.0887 7.14623C26.2043 7.22349 26.2945 7.3333 26.3477 7.46178C26.4009 7.59026 26.4148 7.73163 26.3877 7.86803C26.3605 8.00442 26.2936 8.1297 26.1953 8.22804C26.0969 8.32637 25.9716 8.39334 25.8352 8.42047C25.6988 8.4476 25.5575 8.43367 25.429 8.38046C25.3005 8.32724 25.1907 8.23712 25.1134 8.12149C25.0362 8.00586 24.9949 7.86992 24.9949 7.73085C24.9949 7.54437 25.069 7.36553 25.2009 7.23367C25.3327 7.10181 25.5116 7.02773 25.6981 7.02773ZM22.9683 6.67966C23.1074 6.67966 23.2433 6.7209 23.3589 6.79816C23.4746 6.87542 23.5647 6.98523 23.6179 7.11371C23.6711 7.24219 23.6851 7.38357 23.6579 7.51996C23.6308 7.65635 23.5638 7.78164 23.4655 7.87997C23.3672 7.97831 23.2419 8.04527 23.1055 8.0724C22.9691 8.09953 22.8277 8.08561 22.6992 8.03239C22.5708 7.97917 22.4609 7.88905 22.3837 7.77342C22.3064 7.65779 22.2652 7.52185 22.2652 7.38279C22.2652 7.29045 22.2834 7.19902 22.3187 7.11371C22.354 7.02841 22.4058 6.95089 22.4711 6.8856C22.5364 6.82031 22.6139 6.76852 22.6992 6.73318C22.7845 6.69785 22.876 6.67966 22.9683 6.67966ZM23 10.5469C23.8389 10.5478 24.6431 10.8814 25.2363 11.4746C25.8295 12.0678 26.1631 12.8721 26.1641 13.7109V15.4687C26.1641 16.3079 25.8307 17.1127 25.2373 17.7061C24.644 18.2994 23.8392 18.6328 23 18.6328C22.1608 18.6328 21.356 18.2994 20.7627 17.7061C20.1693 17.1127 19.8359 16.3079 19.8359 15.4687V13.7109C19.8369 12.8721 20.1705 12.0678 20.7637 11.4746C21.3569 10.8815 22.1611 10.5478 23 10.5469ZM20.2401 7.04511C20.3792 7.04511 20.5151 7.08634 20.6307 7.1636C20.7464 7.24086 20.8365 7.35068 20.8897 7.47916C20.9429 7.60764 20.9569 7.74901 20.9297 7.8854C20.9026 8.0218 20.8356 8.14708 20.7373 8.24541C20.639 8.34375 20.5137 8.41072 20.3773 8.43785C20.2409 8.46498 20.0995 8.45105 19.971 8.39783C19.8426 8.34461 19.7327 8.25449 19.6555 8.13887C19.5782 8.02324 19.537 7.8873 19.537 7.74823C19.537 7.56175 19.6111 7.38291 19.7429 7.25105C19.8748 7.11918 20.0536 7.04511 20.2401 7.04511ZM17.7019 8.0725C17.841 8.0725 17.9769 8.11374 18.0925 8.191C18.2081 8.26826 18.2983 8.37807 18.3515 8.50655C18.4047 8.63503 18.4186 8.7764 18.3915 8.9128C18.3644 9.04919 18.2974 9.17447 18.1991 9.27281C18.1007 9.37114 17.9755 9.43811 17.8391 9.46524C17.7027 9.49237 17.5613 9.47844 17.4328 9.42523C17.3043 9.37201 17.1945 9.28189 17.1173 9.16626C17.04 9.05063 16.9988 8.91469 16.9988 8.77562C16.9988 8.58914 17.0728 8.4103 17.2047 8.27844C17.3366 8.14658 17.5154 8.0725 17.7019 8.0725ZM17.7382 27.7651C17.5991 27.7651 17.4632 27.7239 17.3476 27.6467C17.2319 27.5694 17.1418 27.4596 17.0886 27.3311C17.0354 27.2026 17.0215 27.0612 17.0486 26.9249C17.0757 26.7885 17.1427 26.6632 17.241 26.5648C17.3394 26.4665 17.4646 26.3995 17.601 26.3724C17.7374 26.3453 17.8788 26.3592 18.0073 26.4124C18.1358 26.4656 18.2456 26.5558 18.3228 26.6714C18.4001 26.787 18.4413 26.923 18.4413 27.062C18.4413 27.2485 18.3673 27.4273 18.2354 27.5592C18.1035 27.6911 17.9247 27.7651 17.7382 27.7651ZM18.4297 21.584V22.8485C18.4297 23.0349 18.3556 23.2138 18.2237 23.3457C18.0919 23.4775 17.913 23.5516 17.7266 23.5516C17.5401 23.5516 17.3612 23.4775 17.2294 23.3457C17.0975 23.2138 17.0234 23.0349 17.0234 22.8485V21.584C17.0234 19.8669 17.8976 18.5963 19.2909 18.1286C19.6372 18.6101 20.0735 19.0201 20.5755 19.3359H20.5391C19.2183 19.3359 18.4297 20.1764 18.4297 21.584ZM26.3158 26.5457L25.1574 27.7329L25.4321 29.418C25.4535 29.5482 25.4377 29.6819 25.3866 29.8036C25.3354 29.9253 25.251 30.0301 25.143 30.106C25.0344 30.1803 24.9076 30.2234 24.7762 30.2305C24.6448 30.2376 24.514 30.2086 24.398 30.1465L23 29.3737L21.602 30.1465C21.4865 30.2103 21.3554 30.2404 21.2236 30.2332C21.0918 30.2261 20.9647 30.182 20.8568 30.106C20.7489 30.03 20.6646 29.9251 20.6135 29.8035C20.5623 29.6818 20.5465 29.5482 20.5677 29.4179L20.8427 27.7329L19.6842 26.5457C19.5939 26.4532 19.531 26.3376 19.5021 26.2116C19.4733 26.0856 19.4798 25.9541 19.5208 25.8316C19.5618 25.709 19.6358 25.6002 19.7347 25.5169C19.8336 25.4337 19.9535 25.3794 20.0812 25.3599L21.6538 25.1195L22.3635 23.6075C22.4202 23.4866 22.5102 23.3844 22.6229 23.3128C22.7357 23.2412 22.8664 23.2031 23 23.2031C23.1336 23.2031 23.2643 23.2412 23.3771 23.3128C23.4898 23.3844 23.5798 23.4866 23.6365 23.6075L24.3462 25.1195L25.9186 25.3595C26.0464 25.3791 26.1663 25.4334 26.2652 25.5167C26.3641 25.5999 26.4381 25.7088 26.4792 25.8314C26.5202 25.954 26.5267 26.0855 26.4979 26.2115C26.469 26.3375 26.4061 26.4532 26.3158 26.5457ZM25.4609 19.3359H25.4244C25.9265 19.0201 26.3627 18.6101 26.7091 18.1286C28.1024 18.5963 28.9766 19.8669 28.9766 21.584V22.8485C28.9766 23.0349 28.9025 23.2138 28.7706 23.3457C28.6388 23.4775 28.4599 23.5516 28.2734 23.5516C28.087 23.5516 27.9081 23.4775 27.7763 23.3457C27.6444 23.2138 27.5703 23.0349 27.5703 22.8485V21.584C27.5703 20.1764 26.7817 19.3359 25.4609 19.3359ZM28.2796 27.7651C28.1405 27.7651 28.0046 27.7239 27.889 27.6467C27.7733 27.5694 27.6832 27.4596 27.63 27.3311C27.5768 27.2026 27.5629 27.0612 27.59 26.9249C27.6171 26.7885 27.6841 26.6632 27.7824 26.5648C27.8807 26.4665 28.006 26.3995 28.1424 26.3724C28.2788 26.3453 28.4202 26.3592 28.5487 26.4124C28.6772 26.4656 28.787 26.5558 28.8642 26.6714C28.9415 26.787 28.9827 26.923 28.9827 27.062C28.9827 27.2485 28.9086 27.4273 28.7768 27.5592C28.6449 27.6911 28.4661 27.7651 28.2796 27.7651ZM33.8808 15.1592C33.8808 15.2983 33.8395 15.4342 33.7623 15.5498C33.685 15.6655 33.5752 15.7556 33.4467 15.8088C33.3182 15.862 33.1769 15.8759 33.0405 15.8488C32.9041 15.8217 32.7788 15.7547 32.6804 15.6564C32.5821 15.558 32.5151 15.4328 32.488 15.2964C32.4609 15.16 32.4748 15.0186 32.528 14.8901C32.5812 14.7616 32.6714 14.6518 32.787 14.5746C32.9026 14.4973 33.0386 14.4561 33.1776 14.4561C33.3641 14.4561 33.543 14.5302 33.6748 14.662C33.8067 14.7939 33.8808 14.9727 33.8808 15.1592ZM30.4313 9.74173C30.5703 9.74173 30.7063 9.78297 30.8219 9.86023C30.9375 9.93749 31.0277 10.0473 31.0809 10.1758C31.1341 10.3043 31.148 10.4456 31.1209 10.582C31.0937 10.7184 31.0268 10.8437 30.9284 10.942C30.8301 11.0404 30.7048 11.1073 30.5684 11.1345C30.432 11.1616 30.2907 11.1477 30.1622 11.0945C30.0337 11.0412 29.9239 10.9511 29.8466 10.8355C29.7694 10.7199 29.7281 10.5839 29.7281 10.4449C29.7281 10.2584 29.8022 10.0795 29.9341 9.94767C30.0659 9.81581 30.2448 9.74173 30.4313 9.74173ZM30.4619 26.0868C30.3228 26.0868 30.1869 26.0456 30.0713 25.9683C29.9557 25.8911 29.8655 25.7812 29.8123 25.6528C29.7591 25.5243 29.7452 25.3829 29.7723 25.2465C29.7994 25.1101 29.8664 24.9848 29.9647 24.8865C30.0631 24.7882 30.1883 24.7212 30.3247 24.6941C30.4611 24.6669 30.6025 24.6809 30.731 24.7341C30.8595 24.7873 30.9693 24.8774 31.0465 24.9931C31.1238 25.1087 31.165 25.2446 31.165 25.3837C31.165 25.5702 31.091 25.749 30.9591 25.8809C30.8272 26.0127 30.6484 26.0868 30.4619 26.0868ZM32.116 11.918C32.255 11.918 32.391 11.9593 32.5066 12.0365C32.6222 12.1138 32.7123 12.2236 32.7656 12.3521C32.8188 12.4806 32.8327 12.6219 32.8056 12.7583C32.7784 12.8947 32.7115 13.02 32.6131 13.1183C32.5148 13.2167 32.3895 13.2836 32.2531 13.3108C32.1167 13.3379 31.9754 13.324 31.8469 13.2708C31.7184 13.2175 31.6086 13.1274 31.5313 13.0118C31.4541 12.8962 31.4128 12.7602 31.4128 12.6212C31.4128 12.5288 31.431 12.4374 31.4663 12.3521C31.5017 12.2668 31.5535 12.1893 31.6188 12.124C31.6841 12.0587 31.7616 12.0069 31.8469 11.9716C31.9322 11.9362 32.0236 11.918 32.116 11.918ZM32.1363 23.9062C31.9972 23.9062 31.8613 23.865 31.7457 23.7877C31.63 23.7105 31.5399 23.6007 31.4867 23.4722C31.4335 23.3437 31.4195 23.2023 31.4467 23.0659C31.4738 22.9296 31.5408 22.8043 31.6391 22.7059C31.7374 22.6076 31.8627 22.5406 31.9991 22.5135C32.1355 22.4864 32.2769 22.5003 32.4054 22.5535C32.5338 22.6067 32.6437 22.6969 32.7209 22.8125C32.7982 22.9281 32.8394 23.0641 32.8394 23.2031C32.8394 23.3896 32.7653 23.5684 32.6335 23.7003C32.5016 23.8322 32.3228 23.9062 32.1363 23.9062ZM33.19 21.3609C33.0509 21.3609 32.915 21.3197 32.7993 21.2424C32.6837 21.1652 32.5936 21.0553 32.5404 20.9269C32.4871 20.7984 32.4732 20.657 32.5004 20.5206C32.5275 20.3842 32.5944 20.2589 32.6928 20.1606C32.7911 20.0623 32.9164 19.9953 33.0528 19.9682C33.1892 19.941 33.3306 19.955 33.459 20.0082C33.5875 20.0614 33.6973 20.1515 33.7746 20.2672C33.8519 20.3828 33.8931 20.5187 33.8931 20.6578C33.8931 20.8443 33.819 21.0231 33.6872 21.155C33.5553 21.2868 33.3764 21.3609 33.19 21.3609ZM33.5469 18.6117C33.4078 18.6117 33.2718 18.5704 33.1562 18.4932C33.0406 18.4159 32.9505 18.3061 32.8973 18.1776C32.844 18.0491 32.8301 17.9078 32.8572 17.7714C32.8844 17.635 32.9513 17.5097 33.0497 17.4114C33.148 17.313 33.2733 17.2461 33.4097 17.2189C33.5461 17.1918 33.6874 17.2057 33.8159 17.2589C33.9444 17.3122 34.0542 17.4023 34.1315 17.5179C34.2087 17.6335 34.25 17.7695 34.25 17.9085C34.25 18.095 34.1759 18.2739 34.044 18.4057C33.9122 18.5376 33.7333 18.6117 33.5469 18.6117Z" fill="white"/>
</g>
<defs>
<clipPath id="clip0_354_1185">
<rect width="45" height="45" fill="white" transform="translate(0.5)"/>
</clipPath>
</defs>
</svg>
