<svg width="46" height="45" viewBox="0 0 46 45" fill="none" xmlns="http://www.w3.org/2000/svg">
<path d="M22.2961 27.4134V31.0289C21.8099 30.1493 21.097 29.4161 20.2314 28.9054C19.3658 28.3947 18.3792 28.1252 17.3742 28.125H14.5617C14.5617 29.6169 15.1543 31.0476 16.2092 32.1025C17.2641 33.1574 18.6949 33.75 20.1867 33.75H22.2961V39.375H20.8898C19.771 39.375 18.6979 39.8195 17.9067 40.6106C17.1156 41.4018 16.6711 42.4749 16.6711 43.5938H29.3273C29.3273 42.4749 28.8829 41.4018 28.0917 40.6106C27.3005 39.8195 26.2275 39.375 25.1086 39.375H23.7023V36.5625H25.8117C27.3036 36.5625 28.7343 35.9699 29.7892 34.915C30.8441 33.8601 31.4367 32.4294 31.4367 30.9375H28.6242C27.6192 30.9377 26.6326 31.2072 25.767 31.7179C24.9015 32.2286 24.1885 32.9618 23.7023 33.8414V27.4134L31.9064 19.1109C32.9579 18.042 33.5473 16.6026 33.5473 15.1031C33.5473 13.6037 32.9579 12.1643 31.9064 11.0953L30.9164 10.0969C30.3995 9.57178 29.7833 9.15477 29.1037 8.87012C28.4241 8.58547 27.6946 8.43887 26.9578 8.43887C26.221 8.43887 25.4915 8.58547 24.8119 8.87012C24.1323 9.15477 23.5161 9.57178 22.9992 10.0969C22.4823 9.57178 21.8661 9.15477 21.1865 8.87012C20.5069 8.58547 19.7774 8.43887 19.0406 8.43887C18.3038 8.43887 17.5743 8.58547 16.8947 8.87012C16.2151 9.15477 15.5989 9.57178 15.082 10.0969L14.092 11.0981C13.0405 12.1671 12.4512 13.6065 12.4512 15.1059C12.4512 16.6054 13.0405 18.0448 14.092 19.1138L22.2961 27.4134ZM20.1867 16.1719H22.2961V14.0625H23.7023V16.1719H25.8117V17.5781H23.7023V19.6875H22.2961V17.5781H20.1867V16.1719Z" fill="white"/>
<path d="M22.2969 7.03125H23.7031V4.92188H25.8125V3.51562H23.7031V1.40625H22.2969V3.51562H20.1875V4.92188H22.2969V7.03125Z" fill="white"/>
<path d="M41.9844 9.14062V7.03125H40.5781V9.14062H38.4688V10.5469H40.5781V12.6562H41.9844V10.5469H44.0938V9.14062H41.9844Z" fill="white"/>
<path d="M4.01562 12.6562H5.42188V10.5469H7.53125V9.14062H5.42188V7.03125H4.01562V9.14062H1.90625V10.5469H4.01562V12.6562Z" fill="white"/>
</svg>
