<svg width="25" height="24" viewBox="0 0 25 24" fill="none" xmlns="http://www.w3.org/2000/svg">
<path d="M13.8108 17.5471C13.6661 17.4104 13.474 17.3352 13.2749 17.3376C13.0728 17.3376 12.884 17.4105 12.7441 17.5425L10.7904 19.3887C10.7247 19.4497 10.6722 19.5235 10.6361 19.6056C10.6 19.6876 10.581 19.7762 10.5804 19.8659C10.58 20.0459 10.6529 20.2153 10.7863 20.3431L11.0124 20.56C11.1569 20.6967 11.3489 20.7719 11.5478 20.7696C11.75 20.7696 11.9383 20.6971 12.0786 20.5647L14.0318 18.7185C14.1666 18.5907 14.2414 18.4213 14.2423 18.2417C14.2424 18.1522 14.2242 18.0636 14.1888 17.9814C14.1534 17.8991 14.1016 17.825 14.0364 17.7636L13.8103 17.5467L13.8108 17.5471ZM10.3981 14.5485C10.3983 14.459 10.3801 14.3705 10.3447 14.2883C10.3093 14.2062 10.2574 14.1322 10.1923 14.0708L9.96614 13.8534C9.82163 13.7168 9.6296 13.6418 9.43076 13.6444C9.23418 13.6422 9.04432 13.7158 8.90045 13.8497L6.94676 15.6959C6.881 15.7568 6.82841 15.8305 6.79221 15.9125C6.75602 15.9945 6.73699 16.083 6.73629 16.1727C6.73583 16.3527 6.80876 16.5225 6.9426 16.6508L7.16783 16.8673C7.3086 17.0025 7.49876 17.0768 7.70368 17.0768C7.90583 17.0768 8.0946 17.0039 8.23445 16.8719L10.1881 15.0253C10.3229 14.8974 10.3972 14.7285 10.3981 14.5485ZM7.99583 12.2399C7.9959 12.1505 7.97768 12.0621 7.94228 11.98C7.90687 11.8979 7.85505 11.8239 7.78999 11.7627L7.56383 11.5453C7.41926 11.4087 7.22728 11.3338 7.02845 11.3362C6.82629 11.3362 6.63799 11.4091 6.49768 11.5416L4.54445 13.3877C4.47868 13.4485 4.42608 13.5222 4.38988 13.6041C4.35368 13.686 4.33466 13.7745 4.33399 13.864C4.33353 14.044 4.40645 14.2143 4.54029 14.3427L4.76552 14.5591C4.91002 14.6958 5.10201 14.771 5.30091 14.7687C5.50353 14.7687 5.69183 14.6957 5.83168 14.5637L7.78537 12.7171C7.92014 12.5893 7.99491 12.4194 7.99583 12.2399ZM12.3204 16.3951C12.3206 16.3055 12.3023 16.2168 12.2668 16.1345C12.2314 16.0521 12.1794 15.978 12.1141 15.9165L11.8889 15.7005C11.7443 15.5637 11.5521 15.4886 11.3531 15.491C11.1504 15.491 10.9621 15.5639 10.8223 15.6959L8.8686 17.542C8.80279 17.603 8.75016 17.6768 8.71397 17.7589C8.67777 17.8409 8.65877 17.9296 8.65814 18.0193C8.65768 18.1993 8.7306 18.3691 8.86445 18.4974L9.08968 18.7139C9.23417 18.8506 9.42617 18.9257 9.62506 18.9234C9.82179 18.9257 10.0123 18.8521 10.1563 18.718L12.11 16.8719C12.2448 16.744 12.3195 16.5751 12.3204 16.3951ZM22.3894 6.69404C22.1272 6.29943 20.1961 3.49004 18.0906 3.25281C15.794 2.9865 12.7095 5.16266 12.6791 5.18389L12.4884 5.32004C12.4672 5.35558 12.4483 5.39296 12.4164 5.42296L9.21614 8.47835C9.4146 8.64912 9.71553 8.84066 10.0912 8.87897C10.6192 8.93112 11.1869 8.67727 11.7832 8.12158C13.4295 6.58743 14.0291 5.76404 14.0346 5.7562L14.3498 5.31866L21.1238 12.0091C23.3618 10.1556 22.5297 7.14127 22.3894 6.69404Z" fill="white"/>
<path d="M12.4122 8.79693C11.6073 9.54739 10.789 9.88478 9.98406 9.79616C8.86022 9.67524 8.21499 8.76093 8.18776 8.72216L7.96345 8.3977L11.6899 4.84062C9.55068 3.29447 7.9893 3.25755 7.97268 3.25755C7.92514 3.2557 5.06499 3.16016 3.44637 5.14662C1.97683 6.94939 2.36822 8.92801 2.45868 9.29493L4.4313 12.2243L5.86345 10.8711C6.49114 10.2771 7.58037 10.2817 8.20345 10.8794L8.4296 11.0972C8.66222 11.3179 8.82169 11.6044 8.88655 11.9184C8.9514 12.2324 8.91854 12.5587 8.79237 12.8534C9.39606 12.6235 10.1345 12.7348 10.6062 13.188L10.8319 13.4054C10.9875 13.5529 11.1111 13.7308 11.1953 13.9279C11.2794 14.1251 11.3223 14.3375 11.3211 14.5519C11.3211 14.5639 11.3179 14.5749 11.3179 14.586C11.7605 14.5777 12.2064 14.7254 12.5281 15.0342L12.7538 15.2511C12.9094 15.3988 13.0332 15.5769 13.1174 15.7743C13.2016 15.9717 13.2445 16.1843 13.2434 16.3989C13.2434 16.4105 13.2402 16.4215 13.2402 16.4331C13.6828 16.4248 14.1282 16.5725 14.4494 16.8808L14.6756 17.0977C14.8658 17.2805 14.9973 17.5025 15.0776 17.7429C15.6541 17.7245 16.0967 17.5828 16.375 17.2999C16.6607 17.0105 16.7295 16.6352 16.7451 16.4252L12.0956 12.0715C12.0514 12.0301 12.0158 11.9804 11.9908 11.9252C11.9658 11.87 11.9519 11.8104 11.9499 11.7499C11.948 11.6893 11.9579 11.629 11.9793 11.5723C12.0006 11.5155 12.0329 11.4636 12.0744 11.4194C12.1158 11.3752 12.1655 11.3396 12.2207 11.3146C12.2759 11.2896 12.3355 11.2757 12.3961 11.2737C12.4566 11.2717 12.517 11.2817 12.5737 11.3031C12.6304 11.3244 12.6823 11.3567 12.7265 11.3982L17.3788 15.7551C17.785 15.7265 18.1016 15.6032 18.3111 15.3752C18.6019 15.0586 18.6573 14.6137 18.6656 14.376L14.1005 10.2526C14.0539 10.2125 14.0158 10.1634 13.9885 10.1083C13.9611 10.0532 13.945 9.99323 13.9412 9.93184C13.9373 9.87045 13.9458 9.80891 13.9661 9.75084C13.9864 9.69277 14.0181 9.63934 14.0593 9.59369C14.1005 9.54803 14.1504 9.51108 14.2061 9.485C14.2618 9.45892 14.3222 9.44424 14.3837 9.44182C14.4451 9.4394 14.5064 9.44929 14.564 9.4709C14.6216 9.49252 14.6743 9.52543 14.719 9.5677L19.3727 13.7709C19.8111 13.95 20.0068 13.8402 20.0724 13.8019C20.3687 13.6279 20.5339 13.1317 20.5994 12.7888L14.4485 6.71262C14.1014 7.1197 13.4608 7.82031 12.4127 8.79693H12.4122Z" fill="white"/>
</svg>
