<svg width="25" height="24" viewBox="0 0 25 24" fill="none" xmlns="http://www.w3.org/2000/svg">
<g clip-path="url(#clip0_354_1290)">
<path d="M22.7854 18.6333C22.7498 18.4616 22.6796 18.299 22.579 18.1554C22.4784 18.0118 22.3496 17.8902 22.2004 17.7981L13.2251 12.1638L13.5939 11.6249L13.8792 11.8199C13.9198 11.8478 13.9655 11.8673 14.0137 11.8775C14.0619 11.8877 14.1116 11.8883 14.16 11.8792C14.2084 11.8702 14.2546 11.8517 14.2958 11.8248C14.3371 11.7979 14.3726 11.7631 14.4004 11.7225L15.0796 10.7304C15.2064 10.5379 15.2517 10.3029 15.2055 10.0771C15.1594 9.85121 15.0256 9.65283 14.8335 9.52542L12.1018 7.65627C11.952 7.55329 11.7745 7.49813 11.5927 7.49807C11.4546 7.49716 11.3183 7.52996 11.1957 7.59361C11.0732 7.65727 10.968 7.74986 10.8892 7.86336L10.2103 8.85561C10.1825 8.89622 10.1629 8.94191 10.1528 8.99007C10.1426 9.03823 10.1421 9.08792 10.1511 9.1363C10.1602 9.18468 10.1787 9.2308 10.2056 9.27202C10.2325 9.31324 10.2673 9.34876 10.3079 9.37654L10.5939 9.57229L8.31898 12.8962L8.03315 12.7008C7.99252 12.673 7.9468 12.6535 7.89862 12.6434C7.85044 12.6332 7.80073 12.6327 7.75234 12.6418C7.70395 12.6509 7.65782 12.6694 7.61659 12.6963C7.57536 12.7232 7.53983 12.758 7.51203 12.7986L6.83216 13.791C6.70588 13.9837 6.66097 14.2186 6.70721 14.4443C6.75345 14.6699 6.8871 14.8682 7.07899 14.9957L9.81056 16.8643C9.96039 16.9675 10.138 17.0229 10.3199 17.023C10.4581 17.0239 10.5944 16.991 10.7169 16.9273C10.8395 16.8636 10.9447 16.7709 11.0234 16.6574L11.7022 15.6655C11.73 15.6249 11.7496 15.5792 11.7597 15.531C11.7699 15.4829 11.7704 15.4332 11.7614 15.3848C11.7523 15.3364 11.7338 15.2903 11.7069 15.2491C11.68 15.2079 11.6452 15.1723 11.6046 15.1446L11.3188 14.9492L11.6878 14.4103L20.191 20.7337C20.3309 20.8393 20.4909 20.9153 20.6612 20.9571C20.8314 20.999 21.0084 21.0056 21.1814 20.9768C21.3543 20.948 21.5196 20.8842 21.667 20.7894C21.8145 20.6946 21.9412 20.5708 22.0393 20.4255L22.5823 19.6321C22.6823 19.4881 22.7519 19.3253 22.7868 19.1536C22.8217 18.9819 22.8212 18.8048 22.7854 18.6333ZM21.9634 19.2084L21.4204 20.0021C21.3711 20.0766 21.3042 20.1377 21.2255 20.18C21.1469 20.2223 21.059 20.2445 20.9697 20.2446C20.8503 20.2439 20.7343 20.2046 20.639 20.1325L11.8223 13.5757C11.7817 13.546 11.7355 13.5248 11.6865 13.5132C11.6375 13.5016 11.5867 13.4999 11.537 13.5082C11.4874 13.5165 11.4399 13.5346 11.3973 13.5615C11.3547 13.5883 11.318 13.6234 11.2891 13.6647L10.4882 14.8349C10.4604 14.8755 10.4409 14.9212 10.4307 14.9694C10.4206 15.0175 10.42 15.0672 10.4291 15.1156C10.4381 15.164 10.4567 15.2101 10.4835 15.2513C10.5104 15.2925 10.5452 15.3281 10.5858 15.3559L10.8716 15.5514L10.4047 16.2338C10.3831 16.257 10.3534 16.2711 10.3218 16.2732C10.2901 16.2754 10.2588 16.2654 10.2343 16.2454L7.50271 14.3768C7.47505 14.3612 7.45436 14.3357 7.44486 14.3054C7.43537 14.2751 7.43778 14.2424 7.45161 14.2138L7.91908 13.531L8.2051 13.7268C8.24573 13.7546 8.29144 13.7741 8.33962 13.7843C8.38781 13.7944 8.43752 13.7949 8.48591 13.7859C8.53431 13.7768 8.58044 13.7583 8.62167 13.7313C8.6629 13.7044 8.69842 13.6696 8.7262 13.629L11.4244 9.68618C11.4523 9.64557 11.4718 9.59988 11.482 9.55172C11.4921 9.50355 11.4927 9.45386 11.4836 9.40549C11.4745 9.35711 11.456 9.31099 11.4291 9.26977C11.4022 9.22854 11.3675 9.19303 11.3269 9.16524L11.041 8.96987L11.5081 8.28707C11.5298 8.26391 11.5594 8.24982 11.591 8.24764C11.6226 8.24547 11.6538 8.25537 11.6784 8.27535L14.41 10.1443C14.4376 10.1599 14.4583 10.1854 14.4677 10.2157C14.4771 10.246 14.4745 10.2788 14.4605 10.3073L13.9934 10.9897L13.708 10.7941C13.6257 10.7386 13.5248 10.7178 13.4272 10.7361C13.3297 10.7544 13.2432 10.8104 13.1867 10.8919L12.3859 12.0623C12.3579 12.1041 12.3385 12.1511 12.3289 12.2005C12.3193 12.2499 12.3196 12.3007 12.3298 12.3499C12.3401 12.3992 12.3601 12.4459 12.3886 12.4874C12.4171 12.5288 12.4536 12.5642 12.496 12.5913L21.8018 18.4331C21.8653 18.4716 21.9202 18.5228 21.9631 18.5835C22.006 18.6441 22.0359 18.7129 22.0511 18.7856C22.0663 18.8583 22.0663 18.9334 22.0512 19.0061C22.0361 19.0788 22.0063 19.1477 21.9634 19.2084Z" fill="white"/>
<path d="M11 12.7466C11.2071 12.7466 11.375 12.5787 11.375 12.3716C11.375 12.1645 11.2071 11.9966 11 11.9966C10.7929 11.9966 10.625 12.1645 10.625 12.3716C10.625 12.5787 10.7929 12.7466 11 12.7466Z" fill="white"/>
<path d="M20.1876 8.4353C19.5574 8.43548 18.9414 8.62253 18.4175 8.97279C17.8936 9.32304 17.4853 9.82078 17.2443 10.4031C17.0032 10.9854 16.9402 11.626 17.0633 12.2441C17.1864 12.8622 17.4899 13.4299 17.9356 13.8755C18.3813 14.321 18.9491 14.6244 19.5672 14.7473C20.1853 14.8702 20.826 14.807 21.4082 14.5658C21.9904 14.3246 22.488 13.9162 22.8381 13.3922C23.1882 12.8681 23.3751 12.2521 23.3751 11.6219C23.3741 10.7769 23.0379 9.96683 22.4403 9.36943C21.8428 8.77202 21.0326 8.43607 20.1876 8.4353ZM21.4924 11.8568L19.7769 12.7941C19.6951 12.8379 19.6002 12.8501 19.51 12.8285C19.4199 12.8069 19.3407 12.753 19.2877 12.677L18.7532 11.8958C18.697 11.8137 18.6757 11.7127 18.6941 11.615C18.7124 11.5172 18.7688 11.4308 18.8509 11.3746C18.9329 11.3184 19.0339 11.2972 19.1317 11.3155C19.2294 11.3338 19.3159 11.3902 19.3721 11.4723L19.715 11.9736L21.1328 11.1989C21.22 11.1512 21.3227 11.1401 21.4181 11.1681C21.5135 11.1961 21.5939 11.2608 21.6416 11.348C21.6893 11.4353 21.7003 11.5379 21.6724 11.6333C21.6444 11.7287 21.5797 11.8091 21.4924 11.8568Z" fill="white"/>
<path d="M1.625 5.52721C1.69195 8.18602 2.11264 10.8241 2.87598 13.3718C4.52759 18.8372 7.59772 22.5026 11.7542 23.9718C11.8735 24.0095 12.0015 24.0095 12.1208 23.9718C14.3186 23.1949 16.2108 21.8011 17.7516 19.8545L17.2399 19.474L12.4279 15.8952C12.3986 15.9632 12.3628 16.0281 12.3209 16.0891L11.6423 17.0808C11.4948 17.295 11.2972 17.47 11.0668 17.5906C10.8364 17.7112 10.58 17.7738 10.3199 17.7729C9.98688 17.773 9.66165 17.672 9.3872 17.4833L6.65546 15.6147C6.30006 15.3747 6.054 15.004 5.97095 14.5833C5.8879 14.1626 5.97461 13.7261 6.21216 13.3691L6.89331 12.3746C7.02184 12.1871 7.20411 12.0429 7.41615 11.9609C7.62819 11.879 7.86007 11.8631 8.0813 11.9154L9.5932 9.70641C9.46428 9.51892 9.39513 9.29681 9.39484 9.06927C9.39454 8.84174 9.46312 8.61945 9.59155 8.43163L10.2703 7.43975C10.4179 7.22559 10.6154 7.05065 10.8458 6.9301C11.0763 6.80955 11.3327 6.74704 11.5927 6.74798C11.9255 6.74783 12.2506 6.84865 12.5249 7.03711L15.257 8.90644C15.613 9.14629 15.8594 9.51748 15.9422 9.93868C16.025 10.3599 15.9375 10.7967 15.6989 11.1535L15.0194 12.1461C14.9777 12.207 14.9302 12.2638 14.8776 12.3155L16.7114 13.4667C16.3146 12.7198 16.169 11.8649 16.2962 11.0288C16.4234 10.1926 16.8165 9.41971 17.4174 8.82455C18.0184 8.22939 18.795 7.84366 19.6323 7.72454C20.4697 7.60541 21.3231 7.75922 22.0662 8.16318C22.1743 7.28842 22.2356 6.40851 22.25 5.52721C22.25 5.43384 22.2152 5.34382 22.1523 5.27477C22.0895 5.20573 22.0031 5.16261 21.9102 5.15387C15.4879 4.54888 12.2775 0.1994 12.246 0.155998C12.2113 0.107794 12.1657 0.0685174 12.1128 0.0413979C12.06 0.0142783 12.0014 9.03049e-05 11.942 4.29673e-07C11.8826 -8.94456e-05 11.8241 0.0139214 11.7711 0.0408809C11.7182 0.0678404 11.6724 0.106978 11.6376 0.155077C11.6057 0.199021 8.38745 4.54887 1.96484 5.15387C1.87188 5.16261 1.78553 5.20573 1.72268 5.27478C1.65983 5.34382 1.625 5.43384 1.625 5.52721ZM15.6115 18.7408C15.6857 18.7408 15.7582 18.7628 15.8198 18.804C15.8815 18.8452 15.9296 18.9038 15.958 18.9723C15.9863 19.0409 15.9938 19.1163 15.9793 19.189C15.9648 19.2617 15.9291 19.3286 15.8767 19.381C15.8242 19.4335 15.7574 19.4692 15.6847 19.4836C15.6119 19.4981 15.5365 19.4907 15.468 19.4623C15.3995 19.4339 15.3409 19.3858 15.2997 19.3242C15.2585 19.2625 15.2365 19.19 15.2365 19.1158C15.2365 19.0164 15.276 18.921 15.3463 18.8507C15.4167 18.7804 15.512 18.7408 15.6115 18.7408ZM14.5219 19.7532C14.596 19.7532 14.6685 19.7752 14.7302 19.8164C14.7919 19.8576 14.8399 19.9162 14.8683 19.9847C14.8967 20.0532 14.9041 20.1286 14.8896 20.2014C14.8752 20.2741 14.8395 20.341 14.787 20.3934C14.7346 20.4458 14.6678 20.4816 14.595 20.496C14.5223 20.5105 14.4469 20.5031 14.3783 20.4747C14.3098 20.4463 14.2513 20.3982 14.2101 20.3366C14.1688 20.2749 14.1469 20.2024 14.1469 20.1282C14.1469 20.0288 14.1864 19.9334 14.2567 19.8631C14.327 19.7927 14.4224 19.7532 14.5219 19.7532ZM13.2894 20.5816C13.3635 20.5816 13.4361 20.6036 13.4977 20.6448C13.5594 20.686 13.6075 20.7446 13.6358 20.8131C13.6642 20.8816 13.6716 20.957 13.6572 21.0298C13.6427 21.1025 13.607 21.1693 13.5545 21.2218C13.5021 21.2742 13.4353 21.3099 13.3625 21.3244C13.2898 21.3389 13.2144 21.3314 13.1459 21.3031C13.0774 21.2747 13.0188 21.2266 12.9776 21.1649C12.9364 21.1033 12.9144 21.0308 12.9144 20.9566C12.9144 20.8572 12.9539 20.7618 13.0242 20.6914C13.0945 20.6211 13.1899 20.5816 13.2894 20.5816ZM11.9375 21.1815C12.0117 21.1815 12.0842 21.2034 12.1458 21.2447C12.2075 21.2859 12.2556 21.3444 12.284 21.4129C12.3123 21.4815 12.3198 21.5569 12.3053 21.6296C12.2908 21.7024 12.2551 21.7692 12.2027 21.8216C12.1502 21.8741 12.0834 21.9098 12.0107 21.9242C11.9379 21.9387 11.8625 21.9313 11.794 21.9029C11.7255 21.8745 11.6669 21.8265 11.6257 21.7648C11.5845 21.7031 11.5625 21.6306 11.5625 21.5565C11.5625 21.457 11.602 21.3616 11.6723 21.2913C11.7427 21.221 11.838 21.1815 11.9375 21.1815ZM19.8125 6.3023C19.8867 6.3023 19.9592 6.3243 20.0208 6.3655C20.0825 6.40671 20.1306 6.46528 20.159 6.5338C20.1873 6.60232 20.1948 6.67772 20.1803 6.75046C20.1658 6.82321 20.1301 6.89002 20.0777 6.94247C20.0252 6.99491 19.9584 7.03063 19.8857 7.0451C19.8129 7.05957 19.7375 7.05214 19.669 7.02376C19.6005 6.99538 19.5419 6.94731 19.5007 6.88564C19.4595 6.82397 19.4375 6.75147 19.4375 6.6773C19.4375 6.57785 19.477 6.48247 19.5473 6.41214C19.6177 6.34182 19.713 6.30231 19.8125 6.3023ZM18.3015 6.0542C18.3757 6.0542 18.4482 6.07619 18.5099 6.1174C18.5715 6.1586 18.6196 6.21717 18.648 6.28569C18.6764 6.35421 18.6838 6.42961 18.6693 6.50236C18.6548 6.5751 18.6191 6.64192 18.5667 6.69436C18.5142 6.74681 18.4474 6.78252 18.3747 6.79699C18.3019 6.81146 18.2265 6.80403 18.158 6.77565C18.0895 6.74727 18.0309 6.6992 17.9897 6.63754C17.9485 6.57587 17.9265 6.50336 17.9265 6.4292C17.9265 6.32974 17.966 6.23436 18.0364 6.16404C18.1067 6.09371 18.2021 6.0542 18.3015 6.0542ZM16.8363 5.61401C16.9105 5.61401 16.983 5.63601 17.0447 5.67721C17.1063 5.71842 17.1544 5.77698 17.1828 5.84551C17.2112 5.91403 17.2186 5.98943 17.2041 6.06217C17.1896 6.13491 17.1539 6.20173 17.1015 6.25418C17.049 6.30662 16.9822 6.34234 16.9095 6.35681C16.8367 6.37128 16.7613 6.36385 16.6928 6.33547C16.6243 6.30708 16.5657 6.25902 16.5245 6.19735C16.4833 6.13568 16.4613 6.06318 16.4613 5.98901C16.4613 5.88956 16.5008 5.79418 16.5712 5.72386C16.6415 5.65353 16.7369 5.61402 16.8363 5.61401ZM15.4423 4.98395C15.5165 4.98395 15.589 5.00594 15.6507 5.04715C15.7123 5.08835 15.7604 5.14692 15.7888 5.21544C15.8172 5.28396 15.8246 5.35936 15.8101 5.43211C15.7956 5.50485 15.7599 5.57167 15.7075 5.62411C15.655 5.67656 15.5882 5.71227 15.5155 5.72674C15.4427 5.74121 15.3673 5.73378 15.2988 5.7054C15.2303 5.67702 15.1717 5.62895 15.1305 5.56729C15.0893 5.50562 15.0673 5.43311 15.0673 5.35895C15.0673 5.25949 15.1068 5.16411 15.1772 5.09378C15.2475 5.02346 15.3429 4.98395 15.4423 4.98395ZM14.1434 4.17425C14.2175 4.17425 14.29 4.19625 14.3517 4.23745C14.4134 4.27866 14.4614 4.33723 14.4898 4.40575C14.5182 4.47427 14.5256 4.54967 14.5112 4.62241C14.4967 4.69516 14.461 4.76197 14.4085 4.81442C14.3561 4.86686 14.2893 4.90258 14.2165 4.91705C14.1438 4.93152 14.0684 4.92409 13.9999 4.89571C13.9313 4.86733 13.8728 4.81926 13.8316 4.75759C13.7903 4.69592 13.7684 4.62342 13.7684 4.54925C13.7684 4.4498 13.8079 4.35442 13.8782 4.28409C13.9485 4.21377 14.0439 4.17426 14.1434 4.17425ZM12.964 3.1994C13.0381 3.1994 13.1107 3.22139 13.1723 3.2626C13.234 3.3038 13.2821 3.36237 13.3104 3.43089C13.3388 3.49942 13.3462 3.57482 13.3318 3.64756C13.3173 3.7203 13.2816 3.78712 13.2291 3.83957C13.1767 3.89201 13.1099 3.92773 13.0371 3.94219C12.9644 3.95666 12.889 3.94924 12.8205 3.92086C12.752 3.89247 12.6934 3.84441 12.6522 3.78274C12.611 3.72107 12.589 3.64857 12.589 3.5744C12.589 3.47494 12.6285 3.37956 12.6988 3.30924C12.7692 3.23891 12.8645 3.1994 12.964 3.1994ZM11.9375 2.0645C12.0117 2.0645 12.0842 2.08649 12.1458 2.1277C12.2075 2.1689 12.2556 2.22747 12.284 2.29599C12.3123 2.36452 12.3198 2.43992 12.3053 2.51266C12.2908 2.5854 12.2551 2.65222 12.2027 2.70467C12.1502 2.75711 12.0834 2.79283 12.0107 2.80729C11.9379 2.82176 11.8625 2.81434 11.794 2.78595C11.7255 2.75757 11.6669 2.70951 11.6257 2.64784C11.5845 2.58617 11.5625 2.51367 11.5625 2.4395C11.5625 2.34005 11.602 2.24467 11.6723 2.17435C11.7427 2.10402 11.838 2.06451 11.9375 2.0645ZM10.9167 3.19794C10.9909 3.19794 11.0634 3.21993 11.125 3.26114C11.1867 3.30234 11.2348 3.36091 11.2631 3.42943C11.2915 3.49795 11.299 3.57335 11.2845 3.6461C11.27 3.71884 11.2343 3.78566 11.1819 3.8381C11.1294 3.89055 11.0626 3.92626 10.9898 3.94073C10.9171 3.9552 10.8417 3.94778 10.7732 3.91939C10.7047 3.89101 10.6461 3.84294 10.6049 3.78128C10.5637 3.71961 10.5417 3.64711 10.5417 3.57294C10.5417 3.47348 10.5812 3.3781 10.6515 3.30777C10.7218 3.23745 10.8172 3.19794 10.9167 3.19794ZM9.73602 4.17425C9.81019 4.17425 9.88269 4.19624 9.94436 4.23745C10.006 4.27865 10.0541 4.33722 10.0825 4.40574C10.1109 4.47427 10.1183 4.54967 10.1038 4.62241C10.0893 4.69515 10.0536 4.76197 10.0012 4.81441C9.94874 4.86686 9.88192 4.90258 9.80918 4.91704C9.73644 4.93151 9.66104 4.92409 9.59252 4.8957C9.52399 4.86732 9.46543 4.81926 9.42422 4.75759C9.38302 4.69592 9.36102 4.62342 9.36102 4.54925C9.36103 4.4498 9.40054 4.35442 9.47086 4.28409C9.54119 4.21377 9.63657 4.17425 9.73602 4.17425ZM8.43633 4.98394C8.5105 4.98394 8.583 5.00594 8.64467 5.04714C8.70634 5.08835 8.7544 5.14691 8.78278 5.21544C8.81117 5.28396 8.81859 5.35936 8.80412 5.4321C8.78965 5.50484 8.75394 5.57166 8.70149 5.62411C8.64905 5.67655 8.58223 5.71227 8.50949 5.72674C8.43675 5.74121 8.36135 5.73378 8.29282 5.7054C8.2243 5.67701 8.16573 5.62895 8.12453 5.56728C8.08332 5.50561 8.06133 5.43311 8.06133 5.35894C8.06134 5.25949 8.10085 5.16411 8.17117 5.09378C8.2415 5.02346 8.33688 4.98395 8.43633 4.98394ZM7.04198 5.61381C7.11615 5.61381 7.18865 5.63581 7.25032 5.67701C7.31199 5.71822 7.36005 5.77678 7.38844 5.84531C7.41682 5.91383 7.42425 5.98923 7.40978 6.06197C7.39531 6.13472 7.35959 6.20153 7.30715 6.25398C7.2547 6.30642 7.18788 6.34214 7.11514 6.35661C7.0424 6.37108 6.967 6.36365 6.89848 6.33527C6.82995 6.30689 6.77139 6.25882 6.73018 6.19715C6.68898 6.13548 6.66698 6.06298 6.66698 5.98881C6.66699 5.88936 6.7065 5.79398 6.77682 5.72365C6.84715 5.65333 6.94253 5.61382 7.04198 5.61381ZM4.96447 13.9817C4.96447 13.9076 4.98646 13.8351 5.02767 13.7734C5.06887 13.7117 5.12744 13.6637 5.19596 13.6353C5.26448 13.6069 5.33988 13.5995 5.41263 13.6139C5.48537 13.6284 5.55219 13.6641 5.60463 13.7166C5.65708 13.769 5.69279 13.8358 5.70726 13.9086C5.72173 13.9813 5.7143 14.0567 5.68592 14.1252C5.65754 14.1938 5.60947 14.2523 5.54781 14.2935C5.48614 14.3347 5.41363 14.3567 5.33947 14.3567C5.24001 14.3567 5.14464 14.3172 5.07431 14.2469C5.00399 14.1766 4.96448 14.0812 4.96447 13.9817ZM10.5831 20.58C10.6572 20.58 10.7297 20.6019 10.7914 20.6432C10.8531 20.6844 10.9011 20.7429 10.9295 20.8114C10.9579 20.88 10.9653 20.9554 10.9509 21.0281C10.9364 21.1009 10.9007 21.1677 10.8482 21.2201C10.7958 21.2726 10.729 21.3083 10.6562 21.3227C10.5835 21.3372 10.5081 21.3298 10.4396 21.3014C10.371 21.273 10.3125 21.225 10.2713 21.1633C10.2301 21.1016 10.2081 21.0291 10.2081 20.955C10.2081 20.8555 10.2476 20.7601 10.3179 20.6898C10.3882 20.6195 10.4836 20.58 10.5831 20.58ZM9.35004 19.7514C9.42421 19.7514 9.49671 19.7734 9.55838 19.8146C9.62004 19.8558 9.66811 19.9144 9.69649 19.9829C9.72488 20.0514 9.7323 20.1268 9.71783 20.1995C9.70336 20.2723 9.66765 20.3391 9.6152 20.3916C9.56276 20.444 9.49594 20.4797 9.4232 20.4942C9.35045 20.5087 9.27505 20.5012 9.20653 20.4728C9.13801 20.4445 9.07944 20.3964 9.03824 20.3347C8.99703 20.2731 8.97504 20.2006 8.97504 20.1264C8.97504 20.0269 9.01455 19.9316 9.08488 19.8612C9.1552 19.7909 9.25058 19.7514 9.35004 19.7514ZM8.26111 18.7408C8.33528 18.7408 8.40778 18.7628 8.46945 18.804C8.53112 18.8452 8.57918 18.9038 8.60756 18.9723C8.63595 19.0409 8.64337 19.1163 8.6289 19.189C8.61443 19.2617 8.57872 19.3286 8.52627 19.381C8.47383 19.4335 8.40701 19.4692 8.33427 19.4836C8.26152 19.4981 8.18612 19.4907 8.1176 19.4623C8.04908 19.4339 7.99051 19.3858 7.94931 19.3242C7.9081 19.2625 7.88611 19.19 7.88611 19.1158C7.88611 19.0164 7.92562 18.921 7.99595 18.8507C8.06627 18.7804 8.16165 18.7408 8.26111 18.7408ZM7.32507 17.588C7.39924 17.588 7.47174 17.61 7.53341 17.6512C7.59508 17.6924 7.64315 17.751 7.67153 17.8195C7.69991 17.888 7.70734 17.9634 7.69287 18.0362C7.6784 18.1089 7.64268 18.1757 7.59024 18.2282C7.53779 18.2806 7.47097 18.3163 7.39823 18.3308C7.32549 18.3453 7.25009 18.3378 7.18157 18.3095C7.11304 18.2811 7.05448 18.233 7.01327 18.1713C6.97207 18.1097 6.95007 18.0372 6.95007 17.963C6.95008 17.8635 6.98959 17.7682 7.05991 17.6978C7.13024 17.6275 7.22562 17.588 7.32507 17.588ZM6.53461 16.3286C6.60878 16.3286 6.68128 16.3506 6.74295 16.3918C6.80461 16.433 6.85268 16.4916 6.88106 16.5601C6.90944 16.6286 6.91687 16.704 6.9024 16.7768C6.88793 16.8495 6.85222 16.9163 6.79977 16.9688C6.74733 17.0212 6.68051 17.0569 6.60777 17.0714C6.53502 17.0859 6.45962 17.0784 6.3911 17.0501C6.32258 17.0217 6.26401 16.9736 6.22281 16.9119C6.1816 16.8503 6.15961 16.7778 6.15961 16.7036C6.15961 16.6041 6.19912 16.5088 6.26945 16.4384C6.33977 16.3681 6.43515 16.3286 6.53461 16.3286ZM6.25244 15.3691C6.25244 15.4433 6.23045 15.5158 6.18924 15.5775C6.14804 15.6392 6.08947 15.6872 6.02095 15.7156C5.95243 15.744 5.87703 15.7514 5.80428 15.7369C5.73154 15.7225 5.66472 15.6868 5.61228 15.6343C5.55983 15.5819 5.52412 15.515 5.50965 15.4423C5.49518 15.3696 5.5026 15.2942 5.53099 15.2256C5.55937 15.1571 5.60743 15.0986 5.6691 15.0573C5.73077 15.0161 5.80327 14.9941 5.87744 14.9941C5.9769 14.9942 6.07227 15.0337 6.1426 15.104C6.21292 15.1743 6.25243 15.2697 6.25244 15.3691ZM5.57549 6.0542C5.64966 6.0542 5.72216 6.07619 5.78383 6.1174C5.8455 6.1586 5.89356 6.21717 5.92194 6.28569C5.95033 6.35421 5.95775 6.42961 5.94328 6.50236C5.92881 6.5751 5.8931 6.64192 5.84065 6.69436C5.78821 6.74681 5.72139 6.78252 5.64865 6.79699C5.5759 6.81146 5.5005 6.80403 5.43198 6.77565C5.36346 6.74727 5.30489 6.6992 5.26369 6.63754C5.22248 6.57587 5.20049 6.50336 5.20049 6.4292C5.20049 6.32974 5.24 6.23436 5.31033 6.16404C5.38065 6.09371 5.47603 6.0542 5.57549 6.0542ZM5.28179 12.5572C5.28179 12.6314 5.25979 12.7039 5.21859 12.7655C5.17738 12.8272 5.11882 12.8753 5.05029 12.9036C4.98177 12.932 4.90637 12.9395 4.83363 12.925C4.76089 12.9105 4.69407 12.8748 4.64162 12.8224C4.58918 12.7699 4.55346 12.7031 4.53899 12.6303C4.52452 12.5576 4.53195 12.4822 4.56033 12.4137C4.58872 12.3452 4.63678 12.2866 4.69845 12.2454C4.76012 12.2042 4.83262 12.1822 4.90679 12.1822C5.00624 12.1822 5.10162 12.2217 5.17195 12.292C5.24227 12.3624 5.28178 12.4577 5.28179 12.5572ZM4.94305 11.1081C4.94305 11.1823 4.92106 11.2548 4.87986 11.3164C4.83865 11.3781 4.78008 11.4262 4.71156 11.4545C4.64304 11.4829 4.56764 11.4904 4.4949 11.4759C4.42215 11.4614 4.35533 11.4257 4.30289 11.3733C4.25044 11.3208 4.21473 11.254 4.20026 11.1812C4.18579 11.1085 4.19322 11.0331 4.2216 10.9646C4.24998 10.8961 4.29805 10.8375 4.35972 10.7963C4.42138 10.7551 4.49389 10.7331 4.56805 10.7331C4.66751 10.7331 4.76289 10.7726 4.83321 10.8429C4.90354 10.9133 4.94305 11.0086 4.94305 11.1081ZM4.68889 9.63957C4.68889 9.71374 4.6669 9.78624 4.62569 9.84791C4.58449 9.90958 4.52592 9.95765 4.4574 9.98603C4.38888 10.0144 4.31348 10.0218 4.24073 10.0074C4.16799 9.9929 4.10117 9.95718 4.04873 9.90474C3.99628 9.85229 3.96057 9.78547 3.9461 9.71273C3.93163 9.63999 3.93905 9.56459 3.96744 9.49607C3.99582 9.42754 4.04389 9.36898 4.10555 9.32777C4.16722 9.28657 4.23972 9.26457 4.31389 9.26457C4.41335 9.26458 4.50873 9.30409 4.57905 9.37441C4.64938 9.44474 4.68889 9.54012 4.68889 9.63957ZM4.14307 8.53454C4.0689 8.53454 3.9964 8.51255 3.93473 8.47134C3.87306 8.43014 3.82499 8.37157 3.79661 8.30305C3.76823 8.23453 3.7608 8.15913 3.77527 8.08639C3.78974 8.01364 3.82546 7.94682 3.8779 7.89438C3.93035 7.84193 3.99716 7.80622 4.06991 7.79175C4.14265 7.77728 4.21805 7.78471 4.28657 7.81309C4.3551 7.84147 4.41366 7.88954 4.45487 7.95121C4.49607 8.01287 4.51807 8.08538 4.51807 8.15954C4.51806 8.259 4.47855 8.35438 4.40823 8.4247C4.3379 8.49503 4.24252 8.53454 4.14307 8.53454ZM4.0625 6.3023C4.13667 6.3023 4.20917 6.3243 4.27084 6.3655C4.33251 6.40671 4.38057 6.46528 4.40895 6.5338C4.43734 6.60232 4.44476 6.67772 4.43029 6.75046C4.41583 6.82321 4.38011 6.89002 4.32766 6.94247C4.27522 6.99491 4.2084 7.03063 4.13566 7.0451C4.06292 7.05957 3.98752 7.05214 3.91899 7.02376C3.85047 6.99538 3.7919 6.94731 3.7507 6.88564C3.70949 6.82397 3.6875 6.75147 3.6875 6.6773C3.68751 6.57785 3.72702 6.48247 3.79734 6.41214C3.86767 6.34182 3.96305 6.30231 4.0625 6.3023Z" fill="white"/>
</g>
<defs>
<clipPath id="clip0_354_1290">
<rect width="24" height="24" fill="white" transform="translate(0.5)"/>
</clipPath>
</defs>
</svg>
