<svg width="25" height="24" viewBox="0 0 25 24" fill="none" xmlns="http://www.w3.org/2000/svg">
<path d="M17.91 1.78696C17.5545 1.76896 17.1865 1.82446 16.8535 1.97546C16.6815 2.05296 16.5305 2.16296 16.3885 2.28496C16.224 2.30946 16.0635 2.35296 15.915 2.42846C15.584 2.59746 15.3285 2.88246 15.1785 3.21446C15.004 3.60046 14.9795 4.01196 14.9715 4.39296C14.965 4.68346 14.9715 4.97346 14.983 5.26396C14.9675 5.27346 14.9525 5.28296 14.936 5.29596C14.8775 5.34346 14.773 5.42946 14.7135 5.57246C14.66 5.70196 14.6665 5.82096 14.6685 5.88096C14.6735 6.02246 14.6845 6.16446 14.7055 6.30696C14.749 6.59996 14.8335 6.92946 15.058 7.20646C15.1275 7.29146 15.2085 7.35446 15.2895 7.41446C15.3635 7.67646 15.4595 7.94246 15.6215 8.19196C15.933 8.67146 16.4065 9.02146 16.939 9.19796C17.2005 9.28446 17.476 9.33046 17.7535 9.33196H17.7575H17.7585C18.036 9.33096 18.3105 9.28496 18.572 9.19796C19.104 9.02146 19.579 8.67146 19.8905 8.19196C20.0405 7.96096 20.1325 7.71646 20.207 7.47296C20.324 7.39996 20.4395 7.31846 20.53 7.20646C20.7545 6.92946 20.839 6.59996 20.8825 6.30696C20.904 6.16496 20.915 6.02296 20.9195 5.88096C20.9215 5.82096 20.9285 5.70196 20.8745 5.57246C20.815 5.42946 20.7105 5.34346 20.652 5.29596C20.649 5.29346 20.645 5.29146 20.642 5.28896C20.651 5.22846 20.661 5.16796 20.6675 5.10746C20.7055 4.76096 20.7185 4.40596 20.6655 4.04896C20.613 3.69096 20.4935 3.33346 20.2855 3.02246C19.9585 2.53296 19.4495 2.21496 18.927 2.01446C18.6055 1.89096 18.2645 1.80446 17.91 1.78696ZM7.3215 8.39246C6.9665 8.37446 6.599 8.42996 6.266 8.58096C6.0945 8.65846 5.9425 8.76846 5.801 8.89046C5.6365 8.91496 5.4745 8.95846 5.3265 9.03396C4.9955 9.20296 4.74 9.48796 4.59 9.81996C4.4155 10.206 4.392 10.6175 4.384 10.9985C4.3775 11.289 4.384 11.58 4.3955 11.8705C4.38 11.88 4.365 11.8885 4.3485 11.902C4.2895 11.9495 4.1855 12.0355 4.126 12.1785C4.072 12.3085 4.0795 12.428 4.081 12.488C4.0855 12.6295 4.096 12.7705 4.117 12.913C4.1605 13.206 4.2455 13.535 4.4705 13.8125C4.5395 13.8975 4.6205 13.961 4.702 14.0205C4.7765 14.282 4.872 14.5485 5.034 14.798C5.3455 15.2775 5.819 15.6275 6.3515 15.804C6.613 15.891 6.8875 15.937 7.165 15.938H7.1655H7.1685C7.169 15.938 7.1695 15.938 7.1705 15.938C7.448 15.937 7.7225 15.891 7.984 15.804C8.516 15.6275 8.99 15.2775 9.3015 14.798C9.4515 14.567 9.5445 14.3225 9.619 14.079C9.736 14.006 9.85 13.9245 9.9415 13.8125C10.1665 13.535 10.2515 13.206 10.295 12.913C10.316 12.771 10.3275 12.63 10.332 12.488C10.3335 12.428 10.34 12.3085 10.286 12.1785C10.2265 12.0355 10.122 11.9495 10.0635 11.902C10.0605 11.8995 10.0575 11.8975 10.0545 11.895C10.063 11.8345 10.0735 11.775 10.08 11.7145C10.118 11.368 10.13 11.012 10.077 10.655C10.0245 10.297 9.905 9.93946 9.697 9.62846C9.37 9.13896 8.861 8.82096 8.3385 8.62046C8.017 8.49696 7.6765 8.41046 7.322 8.39296L7.3215 8.39246ZM17.715 9.70196C16.7085 9.70446 15.7075 9.75396 14.7345 9.85046C14.623 9.85996 14.507 9.87896 14.3975 9.88946C13.517 9.96446 12.7665 10.561 12.4905 11.4C12.4785 11.436 12.4675 11.4725 12.4575 11.5095C12.368 11.792 12.292 12.0805 12.23 12.374C12.19 12.561 12.1565 12.75 12.1255 12.9385C12.096 13.0835 12.0885 13.234 12.0885 13.382C12.0885 14.4345 12.8345 15.347 13.867 15.551C14.1965 15.631 14.5525 15.6985 14.9195 15.758L17.611 14.2835C17.9055 14.122 18.2075 14.091 18.53 14.1935C18.5345 14.195 18.539 14.1955 18.5425 14.1975C18.5515 14.2005 18.572 14.208 18.603 14.22C18.9075 14.341 19.1185 14.5425 19.2495 14.847L19.697 15.886C20.421 15.8115 21.112 15.7 21.7235 15.551C22.755 15.3465 23.5 14.4345 23.5 13.382C23.5 13.234 23.493 13.0835 23.464 12.9385C23.433 12.75 23.398 12.561 23.3585 12.374C23.296 12.0805 23.2215 11.7925 23.132 11.5095C23.122 11.4725 23.1105 11.4365 23.099 11.4C22.8225 10.561 22.072 9.96396 21.192 9.88946C21.0825 9.87896 20.9655 9.85996 20.854 9.85046C19.8555 9.75196 18.827 9.70196 17.7945 9.70196C17.7675 9.70196 17.741 9.70196 17.715 9.70196ZM18.2355 14.75C18.121 14.7395 17.998 14.7625 17.9025 14.8155L15.1925 16.3H15.1915C15 16.405 14.8665 16.6995 14.912 16.9135C14.958 17.127 15.203 17.3395 15.421 17.356L16.454 17.437C15.8905 18.32 15.127 19.074 14.2315 19.6185C13.178 20.259 11.949 20.5995 10.717 20.6115C10.6075 20.6085 10.5095 20.68 10.474 20.7835C10.432 20.905 10.495 21.042 10.6115 21.096C11.5725 21.5805 12.685 21.7625 13.75 21.606C14.736 21.461 15.6735 21.0325 16.469 20.4265C17.2635 19.821 17.918 19.037 18.378 18.15L19.084 18.618C19.2655 18.739 19.589 18.722 19.757 18.582C19.925 18.4415 20.0015 18.1275 19.915 17.9265L18.6915 15.0875C18.6355 14.957 18.512 14.837 18.38 14.785C18.3675 14.78 18.352 14.7745 18.345 14.7725C18.3095 14.7605 18.2735 14.7535 18.2355 14.75ZM5.0125 16.0255C4.6025 16.051 4.1975 16.08 3.8085 16.1185C2.928 16.1935 2.1775 16.7895 1.9015 17.6285C1.8895 17.6645 1.8785 17.701 1.8685 17.738C1.779 18.0205 1.704 18.31 1.642 18.603C1.602 18.79 1.5685 18.978 1.5375 19.1665C1.5075 19.311 1.5 19.4615 1.5 19.6095C1.5 20.662 2.245 21.5755 3.2775 21.7795C4.4095 22.055 5.802 22.216 7.2045 22.216H7.2065H7.2075C8.4765 22.216 9.7275 22.0795 10.7945 21.85C10.6435 21.7895 10.494 21.724 10.348 21.651C9.9545 21.4645 9.742 21.019 9.892 20.5835C10.0135 20.231 10.3485 19.9875 10.732 19.9965H10.7115C11.4615 19.989 12.2105 19.8445 12.9105 19.5775C12.9095 19.44 12.9025 19.301 12.8755 19.1665C12.844 18.978 12.811 18.79 12.771 18.603C12.7085 18.3095 12.633 18.0205 12.5435 17.738C12.5335 17.701 12.522 17.665 12.5105 17.6285C12.234 16.7895 11.4835 16.194 10.6035 16.1185C10.214 16.0805 9.8095 16.051 9.3995 16.0255C9.262 16.333 9.104 16.632 8.922 16.916C8.705 17.255 8.457 17.575 8.1855 17.871C8.0605 18.007 7.9285 18.1365 7.794 18.2625L7.583 17.162L7.824 16.8815C7.949 16.736 7.9325 16.516 7.787 16.3905C7.724 16.337 7.6435 16.3065 7.5605 16.3065H6.8535C6.661 16.3065 6.5055 16.463 6.5055 16.655C6.5055 16.738 6.5355 16.8185 6.5895 16.8815L6.8305 17.162L6.6185 18.2625C6.484 18.1365 6.3515 18.007 6.227 17.871C5.956 17.575 5.7075 17.255 5.4905 16.916C5.3085 16.632 5.1505 16.333 5.0125 16.0255Z" fill="white"/>
</svg>
