<svg width="25" height="24" viewBox="0 0 25 24" fill="none" xmlns="http://www.w3.org/2000/svg">
<path d="M12.5 6C8.35775 6 5 9.35775 5 13.5C5 17.6423 8.35775 21 12.5 21C16.6423 21 20 17.6423 20 13.5C20 9.35775 16.6423 6 12.5 6ZM12.5 19.5C9.18612 19.5 6.5 16.8139 6.5 13.5C6.5 10.1861 9.18612 7.5 12.5 7.5C15.8139 7.5 18.5 10.1861 18.5 13.5C18.5 16.8139 15.8139 19.5 12.5 19.5Z" fill="white"/>
<path d="M15.2349 12.1099C15.0883 12.2565 15.0883 12.4935 15.2349 12.6401L15.7197 13.125L14.8599 13.9849L15.3901 14.5151L16.5151 13.3901C16.6617 13.2435 16.6617 13.0065 16.5151 12.8599L16.0303 12.375L16.8901 11.5151L16.3599 10.9849L15.2349 12.1099ZM10.1401 13.9849L9.28025 13.125L9.76513 12.6401C9.91175 12.4935 9.91175 12.2565 9.76513 12.1099L8.64013 10.9849L8.10987 11.5151L8.96975 12.375L8.48487 12.8599C8.33825 13.0065 8.33825 13.2435 8.48487 13.3901L9.60987 14.5151L10.1401 13.9849ZM6.125 5.115C6.125 4.75875 5.87375 4.45125 5.52125 4.38L4.25 4.125V3.6C4.69213 3.35888 5 2.84737 5 2.25C5 1.42162 4.41237 0.75 3.6875 0.75C2.96263 0.75 2.375 1.42162 2.375 2.25C2.375 2.84737 2.68288 3.35888 3.125 3.6V4.125L1.85375 4.38C1.50125 4.45125 1.25 4.75875 1.25 5.115V6.75H6.125V5.115ZM23.1462 4.38L21.875 4.125V3.6C22.3171 3.35888 22.625 2.84737 22.625 2.25C22.625 1.42162 22.0374 0.75 21.3125 0.75C20.5876 0.75 20 1.42162 20 2.25C20 2.84737 20.3079 3.35888 20.75 3.6V4.125L19.4788 4.38C19.1262 4.45125 18.875 4.75875 18.875 5.115V6.75H23.75V5.115C23.75 4.75875 23.4988 4.45125 23.1462 4.38Z" fill="white"/>
<path d="M20 19.125V20.25H18.875V21.75H20V22.875H21.5V21.75H22.625V20.25H21.5V19.125H20Z" fill="white"/>
<path d="M15.4205 15.555L13.25 14.625V13.62H13.2425C13.6932 13.2964 14 12.696 14 12C14 10.9646 13.3284 10.125 12.5 10.125C11.6716 10.125 11 10.9646 11 12C11 12.696 11.3068 13.2964 11.7575 13.62H11.75V14.625L9.5795 15.555C9.30387 15.6735 9.125 15.9446 9.125 16.2446V17.9895C10.0662 18.699 11.2329 19.125 12.5 19.125C13.7671 19.125 14.9338 18.699 15.875 17.9895V16.2446C15.875 15.9446 15.6961 15.6735 15.4205 15.555ZM14 23.25V22.125H14.75V21.0435C14.0364 21.2565 13.2822 21.375 12.5 21.375C11.7226 21.375 10.973 21.2576 10.2631 21.0469L10.2969 22.125H11V23.25H14Z" fill="white"/>
</svg>
